<svg xmlns="http://www.w3.org/2000/svg" width="874" height="234" fill="none" viewBox="0 0 874 234"><path fill="#fff" d="M56.0547 172.207C62.5 172.207 68.1315 170.254 72.9492 166.348C77.7669 162.441 80.4362 157.559 80.957 151.699H98.0469C97.7214 157.754 95.638 163.516 91.7969 168.984C87.9557 174.453 82.8125 178.815 76.3672 182.07C69.987 185.326 63.2161 186.953 56.0547 186.953C41.6667 186.953 30.2083 182.168 21.6797 172.598C13.2161 162.962 8.98438 149.811 8.98438 133.145V130.117C8.98438 119.831 10.8724 110.684 14.6484 102.676C18.4245 94.668 23.8281 88.4505 30.8594 84.0234C37.9557 79.5964 46.3216 77.3828 55.957 77.3828C67.806 77.3828 77.6367 80.931 85.4492 88.0273C93.3268 95.1237 97.526 104.336 98.0469 115.664H80.957C80.4362 108.828 77.832 103.229 73.1445 98.8672C68.5221 94.4401 62.793 92.2266 55.957 92.2266C46.7773 92.2266 39.6484 95.5469 34.5703 102.188C29.5573 108.763 27.0508 118.301 27.0508 130.801V134.219C27.0508 146.393 29.5573 155.768 34.5703 162.344C39.5833 168.919 46.7448 172.207 56.0547 172.207ZM192.48 53.75V79.3359H212.207V93.3008H192.48V158.828C192.48 163.06 193.359 166.25 195.117 168.398C196.875 170.482 199.87 171.523 204.102 171.523C206.185 171.523 209.049 171.133 212.695 170.352V185C207.943 186.302 203.32 186.953 198.828 186.953C190.755 186.953 184.668 184.512 180.566 179.629C176.465 174.746 174.414 167.812 174.414 158.828V93.3008H155.176V79.3359H174.414V53.75H192.48ZM267.969 158.535L292.578 79.3359H311.914L269.434 201.309C262.858 218.887 252.409 227.676 238.086 227.676L234.668 227.383L227.93 226.113V211.465L232.812 211.855C238.932 211.855 243.685 210.618 247.07 208.145C250.521 205.671 253.353 201.146 255.566 194.57L259.57 183.828L221.875 79.3359H241.602L267.969 158.535Z"/><path fill="#36D8BB" d="M357.227 220.156C346.94 216.706 339.29 211.074 334.277 203.262C329.264 195.384 327.344 185.846 328.516 174.648L331.25 154.629C331.576 151.895 331.641 149.355 331.445 147.012C330.794 139.655 326.4 135.618 318.262 134.902L320.117 114.688C332.161 114.167 339.16 106.94 341.113 93.0078L344.238 70.5469C348.079 49.388 361.23 35.4232 383.691 28.6523L388.281 44.8633C377.344 49.0951 370.801 58.9909 368.652 74.5508L365.527 96.9141C363.314 109.479 356.055 118.887 343.75 125.137C348.242 128.457 351.53 132.656 353.613 137.734C355.697 142.747 356.445 148.444 355.859 154.824L352.832 177.871L352.441 183.438C351.986 193.984 355.566 200.983 363.184 204.434L357.227 220.156ZM426.074 164.297C431.152 164.427 435.384 163.06 438.77 160.195C442.155 157.266 444.368 153.392 445.41 148.574L471.289 148.477C470.833 155.898 468.49 162.572 464.258 168.496C460.091 174.421 454.492 179.043 447.461 182.363C440.495 185.684 433.138 187.246 425.391 187.051C412.565 186.855 402.409 182.428 394.922 173.77C387.435 165.111 383.822 153.587 384.082 139.199L384.375 133.828L384.473 132.754C386.23 115.566 392.025 101.96 401.855 91.9336C411.686 81.8424 423.828 76.9922 438.281 77.3828C450.195 77.6432 459.635 81.5495 466.602 89.1016C473.633 96.5885 477.083 106.484 476.953 118.789H451.27C451.27 113.125 450.033 108.665 447.559 105.41C445.085 102.155 441.374 100.397 436.426 100.137C423.275 99.7461 415.299 109.349 412.5 128.945C411.523 136.042 411.165 142.031 411.426 146.914C412.077 158.307 416.96 164.102 426.074 164.297ZM542.383 77.3828C551.693 77.513 559.701 79.9219 566.406 84.6094C573.177 89.2318 578.125 95.6445 581.25 103.848C584.44 111.986 585.579 121.035 584.668 130.996C583.171 147.793 577.311 161.4 567.09 171.816C556.934 182.168 544.368 187.214 529.395 186.953C520.215 186.823 512.272 184.479 505.566 179.922C498.861 175.299 493.913 168.919 490.723 160.781C487.533 152.643 486.393 143.659 487.305 133.828C488.997 116.38 494.922 102.513 505.078 92.2266C515.234 81.9401 527.669 76.9922 542.383 77.3828ZM514.551 143.887C514.681 150.137 516.146 155.085 518.945 158.73C521.745 162.311 525.684 164.167 530.762 164.297C539.225 164.557 545.866 160.684 550.684 152.676C555.501 144.603 557.747 134.023 557.422 120.938C557.161 114.688 555.632 109.707 552.832 105.996C550.098 102.22 546.159 100.267 541.016 100.137C532.812 99.8763 526.237 103.75 521.289 111.758C516.406 119.701 514.16 130.41 514.551 143.887ZM645.117 77.2852C654.948 77.5456 662.891 81.4844 668.945 89.1016L679.297 35H706.934L680.957 185H656.348L657.91 173.672C650.033 182.852 640.853 187.311 630.371 187.051C623.796 186.986 618.034 185.26 613.086 181.875C608.138 178.49 604.297 173.639 601.562 167.324C598.893 160.944 597.428 153.848 597.168 146.035C596.973 141.934 597.07 137.962 597.461 134.121L598.047 129.727C599.609 118.919 602.604 109.414 607.031 101.211C611.523 93.0078 616.992 86.9206 623.438 82.9492C629.948 78.9779 637.174 77.0898 645.117 77.2852ZM625.098 134.121C624.577 139.069 624.414 143.236 624.609 146.621C625.26 158.079 629.883 163.906 638.477 164.102C646.224 164.427 652.962 160.781 658.691 153.164L666.211 111.172C663.672 104.206 658.594 100.56 650.977 100.234C644.271 100.039 638.672 102.643 634.18 108.047C629.753 113.385 626.725 122.077 625.098 134.121ZM753.223 186.953C743.978 186.888 735.775 184.642 728.613 180.215C721.517 175.723 716.211 169.603 712.695 161.855C709.18 154.043 707.812 145.449 708.594 136.074L708.887 132.168C709.863 121.882 712.858 112.441 717.871 103.848C722.884 95.2539 729.329 88.6458 737.207 84.0234C745.085 79.3359 753.809 77.1224 763.379 77.3828C776.986 77.6432 787.272 82.6562 794.238 92.4219C801.27 102.122 803.939 114.427 802.246 129.336L800.684 141.348H735.938C735.677 148.184 737.337 153.652 740.918 157.754C744.499 161.855 749.382 163.971 755.566 164.102C765.592 164.362 774.382 160.488 781.934 152.48L794.531 168.105C790.56 174.095 784.831 178.783 777.344 182.168C769.857 185.488 761.816 187.083 753.223 186.953ZM762.012 100.137C756.934 100.007 752.409 101.602 748.438 104.922C744.531 108.242 741.016 114.004 737.891 122.207H775.781L776.367 119.668C776.758 117.064 776.79 114.59 776.465 112.246C775.814 108.47 774.219 105.54 771.68 103.457C769.141 101.309 765.918 100.202 762.012 100.137ZM799.414 204.238C810.352 200.007 816.895 190.111 819.043 174.551L822.168 152.09C824.382 139.525 831.738 130.182 844.238 124.062C839.551 120.872 836.165 116.706 834.082 111.562C831.999 106.419 831.25 100.658 831.836 94.2773L834.863 71.2305L835.254 65.6641C835.71 55.1823 832.161 48.1836 824.609 44.668L830.859 29.2383C841.341 32.7539 848.958 38.4505 853.711 46.3281C858.529 54.1406 860.352 63.5156 859.18 74.4531L856.445 94.375C856.12 97.1745 856.055 99.7135 856.25 101.992C856.901 109.479 861.296 113.581 869.434 114.297L867.578 134.512C855.469 135.163 848.47 142.357 846.582 156.094L843.945 175.527C840.625 198.509 827.311 213.516 804.004 220.547L799.414 204.238Z"/><path fill="#fff" d="M119 79H139V185H119V79Z"/><circle cx="128.5" cy="59.5" r="12.5" fill="#36D8BB"/></svg>